<?xml version="1.0" encoding="iso-8859-1"?>
<!-- Generator: Adobe Illustrator 19.0.0, SVG Export Plug-In . SVG Version: 6.00 Build 0)  -->
<svg version="1.1" id="Layer_1" xmlns="http://www.w3.org/2000/svg" xmlns:xlink="http://www.w3.org/1999/xlink" x="0px" y="0px"
	 viewBox="0 0 512 512" style="enable-background:new 0 0 512 512;" xml:space="preserve">
<g>
	<g>
		<g>
			<path d="M384,128H128c-23.564,0-42.667,19.103-42.667,42.667v170.667C85.333,364.898,104.436,384,128,384h256
				c23.564,0,42.667-19.102,42.667-42.667V170.667C426.667,147.103,407.564,128,384,128z M405.333,341.333
				c0,11.782-9.551,21.333-21.333,21.333H128c-11.782,0-21.333-9.551-21.333-21.333V170.667c0-11.782,9.551-21.333,21.333-21.333
				h256c11.782,0,21.333,9.551,21.333,21.333V341.333z"/>
			<path d="M367.478,172.401c-0.141,0.098-0.28,0.199-0.417,0.303L256,253.483l-111.061-80.779
				c-4.679-3.579-11.374-2.687-14.953,1.992s-2.687,11.374,1.992,14.953c0.136,0.104,0.275,0.205,0.417,0.303l117.333,85.333
				c3.74,2.718,8.804,2.718,12.544,0l117.333-85.333c4.847-3.349,6.061-9.993,2.712-14.839
				C378.968,170.266,372.325,169.052,367.478,172.401z"/>
			<path d="M378.987,321.621l-85.333-53.333c-5.007-3.125-11.6-1.599-14.725,3.408c-3.125,5.007-1.599,11.6,3.408,14.725
				l85.333,53.333c5.007,3.125,11.6,1.599,14.725-3.408C385.52,331.339,383.994,324.747,378.987,321.621z"/>
			<path d="M218.347,268.288l-85.333,53.333c-5.007,3.125-6.533,9.718-3.408,14.725s9.718,6.533,14.725,3.408l85.333-53.333
				c5.007-3.125,6.533-9.718,3.408-14.725C229.947,266.689,223.354,265.163,218.347,268.288z"/>
			<path d="M256,0C114.848,0,0,114.848,0,256s114.848,256,256,256s256-114.848,256-256S397.152,0,256,0z M256,490.667
				C126.603,490.667,21.333,385.397,21.333,256S126.603,21.333,256,21.333S490.667,126.603,490.667,256S385.397,490.667,256,490.667
				z"/>
		</g>
	</g>
</g>
<g>
</g>
<g>
</g>
<g>
</g>
<g>
</g>
<g>
</g>
<g>
</g>
<g>
</g>
<g>
</g>
<g>
</g>
<g>
</g>
<g>
</g>
<g>
</g>
<g>
</g>
<g>
</g>
<g>
</g>
</svg>
